<svg width="256" height="256" xmlns="http://www.w3.org/2000/svg" fill="none">
 <defs>
  <linearGradient id="svg_9" y2="20.2134672%" x2="159.989811%" y1="63.9052008%" x1="16.3628891%">
   <stop offset="0%" stop-color="#F69923"/>
   <stop offset="31.23%" stop-color="#F79A23"/>
   <stop offset="83.83%" stop-color="#E97826"/>
  </linearGradient>
  <linearGradient id="svg_8" y2="13.846058%" x2="74.7430764%" y1="394.671992%" x1="-217.650978%">
   <stop offset="32.33%" stop-color="#9E2064"/>
   <stop offset="63.02%" stop-color="#C92037"/>
   <stop offset="75.14%" stop-color="#CD2335"/>
   <stop offset="100%" stop-color="#E97826"/>
  </linearGradient>
  <linearGradient id="svg_7" y2="-44.2993346%" x2="146.240033%" y1="170.418469%" x1="-80.0440054%">
   <stop offset="32.33%" stop-color="#9E2064"/>
   <stop offset="63.02%" stop-color="#C92037"/>
   <stop offset="75.14%" stop-color="#CD2335"/>
   <stop offset="100%" stop-color="#E97826"/>
  </linearGradient>
  <linearGradient id="svg_6" y2="-41.416466%" x2="165.002%" y1="77.3603602%" x1="-18.3158042%">
   <stop offset="0%" stop-color="#282662"/>
   <stop offset="9.548389%" stop-color="#662E8D"/>
   <stop offset="78.82%" stop-color="#9F2064"/>
   <stop offset="94.87%" stop-color="#CD2032"/>
  </linearGradient>
  <linearGradient id="svg_5" y2="17.1896681%" x2="66.4555408%" y1="463.714866%" x1="-129.782775%">
   <stop offset="32.33%" stop-color="#9E2064"/>
   <stop offset="63.02%" stop-color="#C92037"/>
   <stop offset="75.14%" stop-color="#CD2335"/>
   <stop offset="100%" stop-color="#E97826"/>
  </linearGradient>
  <linearGradient id="svg_4" y2="-51.1003524%" x2="110.598662%" y1="187.706139%" x1="-34.8804169%">
   <stop offset="32.33%" stop-color="#9E2064"/>
   <stop offset="63.02%" stop-color="#C92037"/>
   <stop offset="75.14%" stop-color="#CD2335"/>
   <stop offset="100%" stop-color="#E97826"/>
  </linearGradient>
  <linearGradient id="svg_3" y2="-136.90643%" x2="125.259839%" y1="192.563688%" x1="-20.6189333%">
   <stop offset="0%" stop-color="#282662"/>
   <stop offset="9.548389%" stop-color="#662E8D"/>
   <stop offset="78.82%" stop-color="#9F2064"/>
   <stop offset="94.87%" stop-color="#CD2032"/>
  </linearGradient>
 </defs>
 <g>
  <title>Layer 1</title>
  <rect id="svg_1" fill="#242938" rx="60" height="256" width="256"/>
  <g>

   <g>
    <path fill="url(#svg_9)" d="m170.00808,15.12216c-3.49974,2.0561 -9.36182,7.96192 -16.36131,16.49255l0,0.52496l6.12456,11.33043l0.30623,0.21873c4.50592,-6.43078 9.05559,-12.24911 13.69275,-17.1925c0.34997,-0.39372 0.52496,-0.56871 0.52496,-0.56871c-0.17499,0.17499 -0.34998,0.39372 -0.52496,0.56871c-1.48739,1.66238 -6.03706,6.912 -12.86157,17.41123l0.78744,0.17499c0,0 15.96759,-1.57488 23.66703,-2.88729l0.43747,-0.39372c2.44982,-13.7365 -2.40608,-20.03604 -2.40608,-20.03604c0,0 -6.12455,-9.88678 -13.38652,-5.64334z"/>
    <path fill="url(#svg_8)" d="m141.17893,74.9678c1.96861,-3.63098 3.93721,-7.21823 5.90582,-10.67422c2.0561,-3.58724 4.15595,-7.08698 6.29954,-10.45549c0.13124,-0.17499 0.26248,-0.39372 0.34998,-0.61245c2.09985,-3.32476 4.19969,-6.47453 6.34329,-9.53681l-6.43079,-12.11787c-0.48122,0.56871 -0.96243,1.18117 -1.44364,1.79362c-1.83737,2.31858 -3.76223,4.7684 -5.73083,7.39321c-2.23109,2.97478 -4.50592,6.12456 -6.8245,9.44931c-2.1436,3.06228 -4.33094,6.29954 -6.47453,9.58055c-1.83736,2.84354 -3.71848,5.73083 -5.55584,8.74936c-0.08749,0.13124 -0.13124,0.21873 -0.21873,0.34998l0,0.48122l8.00567,15.88009l0.34998,0.13124c1.79362,-3.49974 3.58724,-6.99949 5.4246,-10.41174z"/>
    <path fill="url(#svg_7)" d="m106.31272,152.70589c1.44365,-3.76223 2.97478,-7.5682 4.50592,-11.41792c1.48739,-3.67473 2.97478,-7.39321 4.54967,-11.11169c1.53114,-3.71848 3.14977,-7.43696 4.7684,-11.19919c1.66238,-3.80597 3.32476,-7.61195 5.03088,-11.37417c1.70613,-3.71848 3.41225,-7.43696 5.16213,-11.11169c0.61245,-1.31241 1.26866,-2.66855 1.92486,-3.98096c1.09367,-2.27484 2.23109,-4.54967 3.32475,-6.78076c0.04375,-0.13124 0.13124,-0.21873 0.17499,-0.34998l-8.35564,-16.49255c-0.13124,0.21873 -0.26248,0.43746 -0.39372,0.6562c-1.92486,3.19352 -3.89347,6.43078 -5.77458,9.75554c-1.92486,3.36851 -3.80597,6.78076 -5.64334,10.23676c-1.57489,2.93104 -3.06228,5.86207 -4.54967,8.83686c-0.30622,0.61245 -0.56871,1.18116 -0.87494,1.79362c-1.83736,3.76222 -3.456,7.34946 -4.94339,10.84921c-1.66238,3.93721 -3.14977,7.69944 -4.46217,11.28668c-0.87494,2.36233 -1.61863,4.59341 -2.36233,6.78076c-0.56871,1.83737 -1.13742,3.71848 -1.66238,5.55584c-1.26866,4.37468 -2.31858,8.70562 -3.19352,13.0803l0.13124,0.52496l8.00567,15.92384l0.26248,0.13124c1.09367,-2.97478 2.23109,-5.94957 3.41225,-9.01185c0.30622,-0.87494 0.6562,-1.70612 0.96243,-2.58106z"/>
    <path fill="url(#svg_6)" d="m93.45115,148.28746c-1.04992,5.29337 -1.79362,10.58673 -2.18734,15.83635c0,0.17499 -0.04375,0.34998 -0.04375,0.56871c-2.62481,-4.1997 -9.6243,-8.26815 -9.6243,-8.26815c5.03088,7.26197 8.83686,14.48019 9.40556,21.56718c-2.66855,0.56871 -6.34329,-0.26248 -10.63047,-1.79362c4.41843,4.06845 7.74318,5.20587 9.05559,5.5121c-4.06845,0.26248 -8.3119,3.06228 -12.59908,6.2558c6.2558,-2.53731 11.28668,-3.54349 14.91767,-2.75605c-5.73083,16.23007 -11.46167,34.16626 -17.23624,53.15238c1.74987,-0.52496 2.79979,-1.70612 3.41225,-3.32476c1.00618,-3.456 7.83068,-26.02935 18.46115,-55.73344c0.30623,-0.83119 0.61246,-1.70613 0.91868,-2.53732c0.08749,-0.21873 0.17499,-0.48122 0.26248,-0.69995c1.13742,-3.10602 2.27483,-6.29954 3.49974,-9.53681c0.26248,-0.74369 0.56871,-1.48739 0.83119,-2.23109c0,0 0,-0.04375 0,-0.04375l-8.35565,-16.5363c0,0.21873 -0.04375,0.39372 -0.08749,0.56871z"/>
    <path fill="url(#svg_5)" d="m160.90874,43.95131c-1.88111,2.88729 -3.93721,6.1683 -6.1683,9.88678c-0.13124,0.17499 -0.21874,0.39372 -0.34998,0.56871c-1.92486,3.23727 -3.93721,6.73701 -6.08081,10.63048c-1.83736,3.32475 -3.76222,6.912 -5.77458,10.80546c-1.74987,3.36851 -3.54349,6.912 -5.38086,10.71797l0.39372,0.17499l20.34227,-2.18734l0.48122,-0.34998c6.1683,-2.84354 8.92435,-5.4246 11.59291,-9.14309c0.69995,-1.00618 1.44365,-2.09985 2.14359,-3.19352c2.18734,-3.41225 4.33094,-7.13073 6.21205,-10.84921c1.83737,-3.58724 3.456,-7.17447 4.72466,-10.36799c0.78744,-2.0561 1.44364,-3.93721 1.88111,-5.59959c0.39372,-1.48739 0.69995,-2.88729 0.91868,-4.1997c-8.2244,1.44365 -18.32991,2.7998 -24.93569,3.10603z"/>
    <path fill="url(#svg_4)" d="m136.36678,88.26683c-0.69995,1.48739 -1.44365,3.01853 -2.18734,4.54967c-0.78744,1.66238 -1.61864,3.41226 -2.40608,5.16213c-0.39372,0.87494 -0.83119,1.79362 -1.22491,2.66856c-1.26866,2.7123 -2.49357,5.5121 -3.80597,8.39939c-1.57488,3.54349 -3.19352,7.26197 -4.81215,11.06794c-1.57488,3.67473 -3.14977,7.43696 -4.72465,11.37418c-1.53114,3.71848 -3.06228,7.5682 -4.59342,11.50541c-1.39989,3.54349 -2.79979,7.13073 -4.19969,10.89296c-0.08749,0.17499 -0.13124,0.34998 -0.21874,0.52496c-1.39989,3.71848 -2.76529,7.50124 -4.20893,11.3947c-0.04375,0.08749 -0.12188,0.31518 -0.16563,0.40268l0.30215,0.06707l6.08477,-0.65455l0.34351,-0.14196c-0.13124,-0.04375 -0.21227,-0.21873 -0.34351,-0.26248c8.04941,-1.00618 18.76738,-7.04324 25.72313,-14.4802c3.19352,-3.41225 6.08081,-7.4807 8.79311,-12.20536c2.01235,-3.54349 3.84972,-7.43696 5.64334,-11.76789c1.57488,-3.76223 3.06228,-7.87443 4.50592,-12.29285c-1.83737,0.96243 -3.98096,1.70612 -6.29954,2.18734c-0.39372,0.0875 -0.83119,0.17499 -1.26866,0.26248c-0.43747,0.08749 -0.87494,0.13124 -1.26866,0.21873c7.52445,-2.88729 12.24911,-8.48688 15.70511,-15.31138c-1.96861,1.35615 -5.20587,3.10602 -9.05559,3.98096c-0.52497,0.13124 -1.04993,0.21874 -1.61864,0.30623c-0.13124,0 -0.26248,0.04375 -0.39372,0.04375c2.62481,-1.09367 4.81215,-2.31858 6.73701,-3.76223c0.39372,-0.30622 0.78744,-0.61245 1.18116,-0.96243c0.56871,-0.52496 1.13742,-1.04992 1.66238,-1.57488c0.34998,-0.34998 0.6562,-0.69995 1.00618,-1.09367c0.7437,-0.87494 1.44365,-1.83737 2.09985,-2.88729c0.21874,-0.30623 0.39372,-0.65621 0.61246,-0.96243c0.26248,-0.48122 0.48121,-0.96243 0.69995,-1.44365c1.04992,-2.09985 1.88111,-3.98096 2.53731,-5.64334c0.34998,-0.83119 0.61245,-1.57488 0.87494,-2.31858c0.08749,-0.26248 0.17499,-0.56871 0.30623,-0.83119c0.26248,-0.78744 0.48122,-1.48739 0.6562,-2.14359c0.26248,-0.91868 0.39372,-1.66238 0.48122,-2.18734c-0.26248,0.21873 -0.52496,0.39372 -0.87494,0.61245c-2.27484,1.35615 -6.1683,2.58107 -9.31807,3.14977l6.21205,-0.69995l-6.21205,0.69995c-0.43747,0.08749 -0.7437,0.13124 -1.09367,0.21873c0.02917,-0.02917 -6.98688,0.71266 -21.04813,2.22546c-0.0875,0.08749 -0.60654,1.18679 -0.82528,1.71175z"/>
    <path fill="url(#svg_3)" d="m103.16295,167.84229c-1.09367,3.01853 -2.23109,6.12455 -3.32476,9.27433c0,0.04375 -0.04375,0.08749 -0.04375,0.13124c-0.17499,0.43747 -0.30622,0.87494 -0.48122,1.35615c-0.74369,2.14359 -1.3999,4.02471 -2.88729,8.39939c2.44982,1.13742 4.41843,4.06845 6.29954,7.43696c-0.17499,-3.456 -1.61863,-6.73701 -4.37468,-9.23057c12.11787,0.52496 22.57336,-2.53732 27.95421,-11.37418c0.48122,-0.78744 0.91868,-1.61863 1.31241,-2.49357c-2.44982,3.10603 -5.5121,4.41843 -11.19919,4.1122c0,0 -0.04375,0 -0.04375,0c0,0 0.04375,0 0.04375,0c8.44313,-3.76223 12.64283,-7.39322 16.40506,-13.38653c0.87494,-1.44365 1.74987,-2.97478 2.62481,-4.68091c-7.39321,7.5682 -15.92384,9.71179 -24.89194,8.09316l-6.73701,0.7437c-0.21874,0.48122 -0.43747,1.04992 -0.65621,1.61863z"/>
   </g>
  </g>
 </g>
</svg>