<svg width="256" height="256" xmlns="http://www.w3.org/2000/svg" fill="none">

 <g>
  <title>Layer 1</title>
  <rect id="svg_1" fill="#242938" rx="60" height="256" width="256"/>
  <path id="svg_7" d="m50.73499,43.6212l108,-7l0,35l-108,0l0,-28z" fill="#ffffff"/>
  <rect id="svg_9" height="139" width="138" y="69.5" x="70" fill="#ffffff"/>
  <path id="svg_12" d="m158.21,65.3075l0,-26l44,26l-44,0z" fill="#ffffff"/>
  <g>
   <title fill="#000000">Notion icon</title>
   <path fill="#000000" d="m66.21701,64.59742c5.8658,4.76498 8.06744,4.40328 19.09136,3.66416l103.90955,-6.23536c2.20164,0 0.36956,-2.20164 -0.3617,-2.56334l-17.26715,-12.47858c-3.30246,-2.56334 -7.7136,-5.5041 -16.15847,-4.77284l-100.60709,7.34404c-3.66416,0.3617 -4.40328,2.20164 -2.94076,3.66416l14.33425,11.37776zm6.23536,24.21804l0,109.32716c0,5.87366 2.9329,8.0753 9.54568,7.70574l114.19435,-6.60492c6.61278,-0.3617 7.35191,-4.40328 7.35191,-9.17612l0,-108.5959c0,-4.76498 -1.83208,-7.33618 -5.88152,-6.97448l-119.33675,6.97448c-4.40328,0.36956 -5.87366,2.5712 -5.87366,7.33618l0,0.00786zm112.73183,5.85794c0.73126,3.30246 0,6.60492 -3.30246,6.98234l-5.5041,1.10082l0,80.70583c-4.7807,2.5712 -9.18398,4.04158 -12.85601,4.04158c-5.88152,0 -7.35191,-1.83994 -11.75519,-7.33618l-35.98895,-56.50352l0,54.66358l11.38562,2.57906s0,6.60492 -9.18398,6.60492l-25.33459,1.46252c-0.73126,-1.46252 0,-5.13454 2.5712,-5.8658l6.60492,-1.83208l0,-72.28456l-9.1604,-0.73912c-0.73912,-3.30246 1.10082,-8.06744 6.23536,-8.437l27.17453,-1.83208l37.45933,57.23478l0,-50.63772l-9.55355,-1.09296c-0.73126,-4.04158 2.20164,-6.97448 5.87366,-7.33618l25.33459,-1.47824zm-138.80554,-55.02528l104.65653,-7.70574c12.84814,-1.10082 16.15847,-0.36956 24.23377,5.5041l33.40989,23.47892c5.5041,4.03372 7.34404,5.13454 7.34404,9.53782l0,128.78022c0,8.06744 -2.9329,12.84814 -13.20984,13.57154l-121.54626,7.34404c-7.70574,0.36956 -11.38562,-0.73126 -15.42721,-5.87366l-24.60333,-31.92378c-4.40328,-5.87366 -6.23536,-10.26908 -6.23536,-15.41148l0,-114.46956c0,-6.59706 2.94076,-12.10902 11.37776,-12.83242z"/>
  </g>
  <g>
   <path d="m5.948,117.60876c0.99,0.807 1.365,0.75 3.234,0.625l17.62,-1.057c0.375,0 0.063,-0.375 -0.063,-0.438l-2.927,-2.115c-0.557,-0.438 -1.307,-0.932 -2.74,-0.813l-17.057,1.25c-0.625,0.057 -0.75,0.37 -0.5,0.62l2.433,1.928zm1.057,4.11l0,18.536c0,0.995 0.495,1.37 1.615,1.307l19.365,-1.12c1.12,-0.063 1.25,-0.745 1.25,-1.557l0,-18.411c0,-0.813 -0.313,-1.245 -1,-1.182l-20.234,1.182c-0.75,0.063 -0.995,0.432 -0.995,1.24l-0.001,0.005zm19.115,0.989c0.125,0.563 0,1.12 -0.563,1.188l-0.932,0.188l0,13.682c-0.813,0.438 -1.557,0.688 -2.177,0.688c-1,0 -1.25,-0.313 -1.995,-1.245l-6.104,-9.583l0,9.271l1.932,0.438c0,0 0,1.12 -1.557,1.12l-4.297,0.25c-0.125,-0.25 0,-0.875 0.438,-0.995l1.12,-0.313l0,-12.255l-1.557,-0.125c-0.125,-0.563 0.188,-1.37 1.057,-1.432l4.609,-0.313l6.354,9.708l0,-8.589l-1.62,-0.188c-0.125,-0.682 0.37,-1.182 0.995,-1.24l4.297,-0.255zm-23.537,-9.328l17.745,-1.307c2.177,-0.188 2.74,-0.063 4.109,0.932l5.667,3.984c0.932,0.682 1.245,0.87 1.245,1.615l0,21.839c0,1.37 -0.5,2.177 -2.24,2.302l-20.615,1.245c-1.302,0.063 -1.927,-0.125 -2.615,-0.995l-4.172,-5.417c-0.745,-0.995 -1.057,-1.74 -1.057,-2.609l0,-19.411c0,-1.12 0.5,-2.052 1.932,-2.177l0.001,-0.001z"/>
  </g>
 </g>
</svg>