<svg width="408" height="408" viewBox="0 0 408 408" fill="none" xmlns="http://www.w3.org/2000/svg">
<g filter="url(#filter0_d_0_1)">
<path d="M4 100C4 44.7715 48.7715 0 104 0L304 0C359.228 0 404 44.7715 404 100V300C404 355.228 359.228 400 304 400H104C48.7715 400 4 355.228 4 300L4 100Z" fill="#242938"/>
<path d="M352.773 219.047C363.271 136.861 305.232 61.7249 223.197 51.2268C141.161 40.7287 65.7249 98.7683 55.2268 180.803C44.7287 262.839 102.768 338.125 184.803 348.773C266.989 359.271 342.125 301.232 352.773 219.047Z" fill="#FF6C37"/>
<path d="M258.14 146.31L194.852 209.598L177.005 191.752C239.244 129.513 245.393 134.912 258.14 146.31Z" fill="#EEEEEE"/>
<path d="M194.852 211.098C194.402 211.098 194.102 210.948 193.802 210.648L175.805 192.801C175.205 192.201 175.205 191.302 175.805 190.702C239.094 127.413 245.692 133.412 259.04 145.41C259.34 145.71 259.49 146.01 259.49 146.46C259.49 146.91 259.34 147.21 259.04 147.509L195.751 210.648C195.602 210.948 195.152 211.098 194.852 211.098ZM179.104 191.752L194.852 207.499L255.891 146.46C244.793 136.561 237.294 133.562 179.104 191.752Z" fill="#FF6C37"/>
<path d="M212.998 227.745L195.751 210.498L259.04 147.21C275.987 164.306 250.642 192.051 212.998 227.745Z" fill="#EEEEEE"/>
<path d="M212.998 229.245C212.548 229.245 212.249 229.095 211.949 228.795L194.702 211.548C194.402 211.248 194.402 210.948 194.402 210.498C194.402 210.048 194.552 209.748 194.852 209.448L258.14 146.16C258.74 145.56 259.64 145.56 260.24 146.16C264.139 149.759 266.239 154.858 266.089 160.107C265.789 176.754 246.892 197.9 214.198 228.795C213.748 229.095 213.298 229.245 212.998 229.245ZM197.851 210.498C207.449 220.246 211.499 224.146 212.998 225.645C238.194 201.65 262.639 177.054 262.789 160.107C262.939 156.208 261.44 152.309 258.89 149.309L197.851 210.498Z" fill="#FF6C37"/>
<path d="M177.305 192.201L190.053 204.949C190.352 205.249 190.352 205.549 190.053 205.849C189.903 205.999 189.903 205.999 189.753 205.999L163.357 211.698C162.008 211.848 160.808 210.948 160.508 209.598C160.358 208.848 160.658 208.099 161.108 207.649L176.405 192.351C176.705 192.051 177.155 191.901 177.305 192.201Z" fill="#EEEEEE"/>
<path d="M162.907 213.198C160.658 213.198 159.008 211.398 159.008 209.148C159.008 208.099 159.458 207.049 160.208 206.299L175.505 191.002C176.405 190.252 177.605 190.252 178.505 191.002L191.252 203.749C192.152 204.499 192.152 205.849 191.252 206.749C190.952 207.049 190.652 207.199 190.202 207.349L163.807 213.048C163.507 213.048 163.207 213.198 162.907 213.198ZM176.855 193.851L162.158 208.548C161.858 208.848 161.708 209.298 162.008 209.748C162.158 210.198 162.607 210.348 163.057 210.198L187.803 204.799L176.855 193.851Z" fill="#FF6C37"/>
<path d="M291.584 111.216C281.986 101.918 266.539 102.218 257.24 111.966C247.942 121.714 248.242 137.011 257.99 146.31C265.939 153.958 277.937 155.308 287.385 149.609L270.288 132.512L291.584 111.216Z" fill="#EEEEEE"/>
<path d="M274.787 154.558C260.54 154.558 248.992 143.01 248.992 128.763C248.992 114.515 260.54 102.967 274.787 102.967C281.386 102.967 287.835 105.517 292.634 110.166C292.934 110.466 293.084 110.766 293.084 111.216C293.084 111.666 292.934 111.966 292.634 112.266L272.388 132.512L288.285 148.409C288.885 149.009 288.885 149.909 288.285 150.509C288.135 150.659 288.135 150.659 287.985 150.809C284.086 153.208 279.436 154.558 274.787 154.558ZM274.787 106.117C262.19 106.117 251.991 116.315 252.141 128.913C252.141 141.511 262.339 151.709 274.937 151.559C278.387 151.559 281.836 150.809 284.985 149.159L269.238 133.562C268.938 133.262 268.788 132.962 268.788 132.512C268.788 132.062 268.938 131.762 269.238 131.462L289.335 111.366C285.285 107.917 280.186 106.117 274.787 106.117Z" fill="#FF6C37"/>
<path d="M292.034 111.666L291.734 111.366L270.288 132.512L287.235 149.459C288.885 148.409 290.534 147.21 291.884 145.86C301.482 136.411 301.482 121.114 292.034 111.666Z" fill="#EEEEEE"/>
<path d="M287.385 151.109C286.935 151.109 286.635 150.959 286.335 150.659L269.238 133.562C268.938 133.262 268.788 132.962 268.788 132.512C268.788 132.062 268.938 131.762 269.238 131.462L290.534 110.166C291.134 109.566 292.034 109.566 292.634 110.166L293.084 110.466C303.132 120.514 303.132 136.711 293.234 146.91C291.734 148.409 290.084 149.759 288.285 150.809C287.835 150.959 287.535 151.109 287.385 151.109ZM272.388 132.512L287.535 147.659C288.735 146.91 289.935 145.86 290.834 144.96C299.383 136.411 299.833 122.464 291.584 113.466L272.388 132.512Z" fill="#FF6C37"/>
<path d="M260.69 149.009C257.09 145.41 251.241 145.41 247.642 149.009L191.102 205.549L200.551 214.997L260.39 162.507C264.289 159.207 264.589 153.358 261.29 149.459C260.99 149.309 260.84 149.159 260.69 149.009Z" fill="#EEEEEE"/>
<path d="M200.401 216.497C199.951 216.497 199.651 216.347 199.351 216.047L189.903 206.599C189.303 205.999 189.303 205.099 189.903 204.499L246.442 147.959C250.642 143.76 257.39 143.76 261.59 147.959C265.789 152.159 265.789 158.907 261.59 163.107C261.44 163.257 261.29 163.407 261.14 163.557L201.3 216.047C201.151 216.347 200.851 216.497 200.401 216.497ZM193.202 205.549L200.551 212.898L259.34 161.307C262.639 158.607 262.939 153.658 260.24 150.359C257.54 147.06 252.591 146.76 249.292 149.459C249.142 149.609 248.992 149.759 248.692 149.909L193.202 205.549Z" fill="#FF6C37"/>
<path d="M147.76 269.887C147.16 270.187 146.86 270.787 147.01 271.387L149.56 282.185C150.16 283.685 149.26 285.485 147.61 285.935C146.41 286.384 145.061 285.935 144.311 285.035L127.814 268.688L181.654 214.847L200.251 215.147L212.848 227.745C209.849 230.295 191.702 247.841 147.76 269.887Z" fill="#EEEEEE"/>
<path d="M146.56 287.434C145.361 287.434 144.161 286.984 143.411 286.085L127.064 269.737C126.764 269.438 126.614 269.138 126.614 268.688C126.614 268.238 126.764 267.938 127.064 267.638L180.904 213.798C181.204 213.498 181.654 213.348 181.954 213.348L200.551 213.648C201.001 213.648 201.3 213.798 201.6 214.097L214.198 226.695C214.498 226.995 214.648 227.445 214.648 227.895C214.648 228.345 214.498 228.645 214.048 228.945L212.998 229.845C197.101 243.792 175.505 257.74 148.66 271.087L151.21 281.735C151.659 283.685 150.76 285.785 148.96 286.834C148.06 287.284 147.31 287.434 146.56 287.434ZM130.063 268.688L145.511 283.985C145.96 284.735 146.86 285.035 147.61 284.585C148.36 284.135 148.66 283.235 148.21 282.485L145.661 271.687C145.361 270.337 145.96 269.138 147.16 268.538C173.705 255.19 195.152 241.393 210.899 227.745L199.801 216.647L182.554 216.347L130.063 268.688Z" fill="#FF6C37"/>
<path d="M115.066 281.585L127.964 268.688L147.16 287.884L116.566 285.785C115.216 285.635 114.316 284.435 114.466 283.085C114.466 282.485 114.616 281.885 115.066 281.585Z" fill="#EEEEEE"/>
<path d="M147.16 289.234L116.416 287.134C114.166 286.984 112.666 285.035 112.816 282.785C112.966 281.885 113.266 280.985 114.016 280.386L126.914 267.488C127.514 266.888 128.414 266.888 129.013 267.488L148.21 286.684C148.66 287.134 148.81 287.734 148.51 288.334C148.21 288.934 147.76 289.234 147.16 289.234ZM127.964 270.787L116.116 282.635C115.666 282.935 115.666 283.685 116.116 283.985C116.266 284.135 116.416 284.285 116.716 284.285L143.261 286.085L127.964 270.787Z" fill="#FF6C37"/>
<path d="M176.405 221.746C175.505 221.746 174.905 220.996 174.905 220.246C174.905 219.796 175.055 219.497 175.355 219.197L189.903 204.649C190.502 204.049 191.402 204.049 192.002 204.649L201.45 214.098C201.9 214.547 202.05 214.997 201.9 215.597C201.75 216.047 201.3 216.497 200.701 216.647L176.705 221.746C176.555 221.746 176.405 221.746 176.405 221.746ZM190.952 207.799L181.054 217.697L197.251 214.247L190.952 207.799Z" fill="#FF6C37"/>
<path d="M200.251 215.147L183.754 218.747C182.554 219.047 181.354 218.297 181.054 217.097C180.904 216.347 181.054 215.597 181.654 214.997L190.802 205.849L200.251 215.147Z" fill="#EEEEEE"/>
<path d="M183.454 220.246C181.354 220.246 179.704 218.597 179.704 216.497C179.704 215.447 180.154 214.547 180.754 213.798L189.903 204.649C190.502 204.049 191.402 204.049 192.002 204.649L201.45 214.098C201.9 214.547 202.05 214.997 201.9 215.597C201.75 216.047 201.3 216.497 200.701 216.647L184.204 220.246C183.904 220.246 183.604 220.246 183.454 220.246ZM190.952 207.799L182.854 215.897C182.554 216.197 182.554 216.497 182.704 216.797C182.854 217.097 183.154 217.247 183.604 217.247L197.401 214.247L190.952 207.799Z" fill="#FF6C37"/>
<path d="M292.184 126.063C291.884 125.164 290.834 124.714 289.934 125.014C289.035 125.313 288.585 126.363 288.885 127.263C288.885 127.413 289.035 127.563 289.035 127.713C289.934 129.513 289.635 131.762 288.435 133.412C287.835 134.162 287.985 135.212 288.585 135.812C289.335 136.411 290.384 136.262 290.984 135.512C293.234 132.662 293.684 129.063 292.184 126.063Z" fill="#FF6C37"/>
</g>
<defs>
<filter id="filter0_d_0_1" x="0" y="0" width="408" height="408" filterUnits="userSpaceOnUse" color-interpolation-filters="sRGB">
<feFlood flood-opacity="0" result="BackgroundImageFix"/>
<feColorMatrix in="SourceAlpha" type="matrix" values="0 0 0 0 0 0 0 0 0 0 0 0 0 0 0 0 0 0 127 0" result="hardAlpha"/>
<feOffset dy="4"/>
<feGaussianBlur stdDeviation="2"/>
<feComposite in2="hardAlpha" operator="out"/>
<feColorMatrix type="matrix" values="0 0 0 0 0 0 0 0 0 0 0 0 0 0 0 0 0 0 0.25 0"/>
<feBlend mode="normal" in2="BackgroundImageFix" result="effect1_dropShadow_0_1"/>
<feBlend mode="normal" in="SourceGraphic" in2="effect1_dropShadow_0_1" result="shape"/>
</filter>
</defs>
</svg>